# xmcd CD database file
#
# Track frame offsets:
#	150
#	19216
#	42145
#	73944
#	95136
#	123669
#	143097
#	177128
#	202418
#
# Disc length: 3139 seconds
#
# Revision: 0
# Processed by: cddbd v1.5.1PL0 Copyright (c) Steve Scherf et al.
# Submitted via: CDex 1.50Beta7
#
DISCID=8b0c4109
DTITLE=Eddie Landsberg - Then That Swingeth
DYEAR=2004
DGENRE=Jazz
TTITLE0=Them That Swingeth
TTITLE1=Get Wicked
TTITLE2=Black Orpheus
TTITLE3=Beautiful Love
TTITLE4=Laura
TTITLE5=Sunny Side Of The Street
TTITLE6=Indian Summer
TTITLE7=Mambotistic
TTITLE8=Mad Dash Home
EXTD=YEAR: 2004
EXTT0=
EXTT1=
EXTT2=
EXTT3=
EXTT4=
EXTT5=
EXTT6=
EXTT7=
EXTT8=
PLAYORDER=
